<svg width="23" height="23" viewBox="0 0 23 23" fill="none" xmlns="http://www.w3.org/2000/svg">
    <g clip-path="url(#clip0_57_3215)">
        <g opacity="0.5">
            <path d="M11.4589 0.399902H8.98389V2.8749H11.4589V0.399902Z" fill="#5834FF"/>
            <path d="M18.0103 4.17611L16.2607 2.42529L14.5099 4.17487L16.2595 5.92569L18.0103 4.17611Z" fill="#5834FF"/>
            <path d="M20.1215 9.0625H17.6465V11.5375H20.1215V9.0625Z" fill="#5834FF"/>
            <path d="M14.5964 16.5114L16.3472 18.261L18.0967 16.5102L16.3459 14.7606L14.5964 16.5114Z" fill="#5834FF"/>
            <path d="M11.4589 17.7249H8.98389V20.1999H11.4589V17.7249Z" fill="#5834FF"/>
            <path d="M2.25921 16.4237L4.00879 18.1746L5.7596 16.425L4.01003 14.6742L2.25921 16.4237Z" fill="#5834FF"/>
            <path d="M2.79629 9.0625H0.321289V11.5375H2.79629V9.0625Z" fill="#5834FF"/>
            <path d="M5.84603 4.26105L4.09521 2.51147L2.34564 4.26229L4.09645 6.01187L5.84603 4.26105Z" fill="#5834FF"/>
            <path d="M10.2215 5.34985C7.49898 5.34985 5.27148 7.57735 5.27148 10.2999C5.27148 13.0224 7.49898 15.2499 10.2215 15.2499C12.944 15.2499 15.1715 13.0224 15.1715 10.2999C15.1715 7.57735 12.944 5.34985 10.2215 5.34985Z" fill="#5834FF"/>
        </g>
    </g>
    <defs>
        <clipPath id="clip0_57_3215">
            <rect width="22" height="22" fill="white" transform="translate(0.321289 0.399902)"/>
        </clipPath>
    </defs>
</svg>
