<svg width="219" height="28" viewBox="0 0 219 28" fill="none" xmlns="http://www.w3.org/2000/svg">
    <g clip-path="url(#clip0_57_3193)">
        <path d="M46.2087 17.8561C46.2087 21.1522 43.2357 23.3928 37.5599 23.3928C33.5395 23.3928 30.1611 22.2681 27.7117 20.2611L30.1019 17.3803C31.9601 18.9807 34.5277 19.8718 37.6528 19.8718C40.3302 19.8718 41.6731 19.37 41.6731 18.3146C41.6731 17.2592 40.4231 16.9391 37.2051 16.6709C32.5598 16.2557 28.3367 15.2089 28.3367 11.636C28.3367 8.06308 31.9601 6.32422 36.918 6.32422C40.2711 6.32422 43.3539 7.14607 45.4992 8.70326L43.2019 11.61C41.462 10.3556 39.3589 9.84521 36.9264 9.8279C35.0936 9.8279 32.8807 10.122 32.8807 11.2726C32.8807 12.3454 34.6882 12.4838 37.4839 12.7174C42.6022 13.1499 46.2172 14.1794 46.2172 17.8648L46.2087 17.8561Z" fill="white"/>
        <path d="M58.633 22.1124C57.5181 22.891 55.7698 23.3495 54.2748 23.3495C51.4622 23.3495 49.3338 21.7664 49.3338 18.7039V13.3748H47.1462V10.1912H49.3338V7.24121H53.7342V10.1912H58.4894V13.3748H53.7342V17.9512C53.7342 19.0932 54.562 19.7593 55.7444 19.7593C56.4792 19.7593 57.1718 19.5084 57.8897 19.1624L58.6245 22.1124H58.633Z" fill="white"/>
        <path d="M74.8242 15.7539V20.4687C74.8242 21.3857 74.9847 22.1383 75.3564 22.8737H70.8883C70.6434 22.4844 70.466 21.9999 70.466 21.5674V21.5414C69.5285 22.5449 67.8055 23.3235 65.618 23.3235C63.0081 23.3235 59.6719 22.2681 59.6719 19.024C59.6719 15.7798 62.9997 14.7244 65.618 14.7244C67.8055 14.7244 69.5285 15.503 70.466 16.5325V15.7106C70.466 13.7901 69.0809 12.873 66.3781 12.873C64.9 12.873 63.4473 13.0807 61.9354 13.8593L60.9303 10.9958C62.6027 10.1739 65.1534 9.68945 67.2987 9.68945C72.0117 9.68945 74.8242 11.8436 74.8242 15.7539ZM70.559 18.8855C69.7059 17.6744 68.1434 17.3543 66.8764 17.3543C65.6095 17.3543 63.9456 17.6744 63.9456 19.024C63.9456 20.3735 65.618 20.6936 66.8764 20.6936C68.1349 20.6936 69.7143 20.3735 70.559 19.1364V18.8855Z" fill="white"/>
        <path d="M84.7233 17.7435L82.2654 19.9842V22.865H77.865V5.93481H82.2654V15.7538L87.9412 10.1911H92.8822L87.7216 15.3126L93.1947 22.865H88.4565L84.7233 17.7435Z" fill="white"/>
        <path d="M94.259 6.78271C94.259 5.50235 95.3064 4.65454 96.8013 4.65454C98.2963 4.65454 99.3267 5.50235 99.3267 6.78271C99.3267 8.06306 98.2794 8.91087 96.8013 8.91087C95.3232 8.91087 94.259 8.06306 94.259 6.78271ZM99.0396 22.8651H94.6138V10.1912H99.0396V22.8651Z" fill="white"/>
        <path d="M102.122 22.865V10.1912H106.523V12.2069C107.57 10.6237 109.403 9.73267 111.616 9.73267C115.214 9.73267 117.156 12.0858 117.156 15.4078V22.865H112.756V15.7019C112.756 14.0582 111.844 13.0893 110.163 13.0893C108.71 13.0893 107.46 13.7987 106.523 15.3559V22.865H102.122Z" fill="white"/>
        <path d="M135.476 20.6244C135.476 26.187 131.118 27.8999 127.233 27.8999C124.978 27.8999 122.165 27.329 120.594 26.4379L121.76 23.436C122.807 24.1021 124.707 24.6471 126.717 24.6471C129.691 24.6471 131.05 23.4533 131.05 21.4462V20.4427C129.885 21.9999 127.968 22.7525 125.932 22.7525C121.979 22.7525 119.386 20.3043 119.386 16.2556C119.386 12.2069 121.979 9.73267 125.932 9.73267C128.052 9.73267 129.885 10.4853 131.05 12.0425V10.1912H135.476V20.6244ZM131.076 17.4408V15.0617C130.045 13.617 128.753 13.0287 127.19 13.0287C124.868 13.0287 123.618 14.2658 123.618 16.2556C123.618 18.2453 124.868 19.4824 127.19 19.4824C128.753 19.4824 130.054 18.8422 131.076 17.4494V17.4408Z" fill="white"/>
        <path d="M143.424 10.5372V13.5823H153.297V17.2244H143.424V22.8736H138.863V6.85181H155.24V10.5372H143.424Z" fill="white"/>
        <path d="M155.848 16.5325C155.848 12.2761 158.973 9.68945 163.956 9.68945C168.94 9.68945 172.039 12.2761 172.039 16.5325C172.039 20.7888 168.914 23.3928 163.956 23.3928C158.999 23.3928 155.848 20.7628 155.848 16.5325ZM167.842 16.5325C167.842 14.2918 166.212 13.1499 163.956 13.1499C161.701 13.1499 160.071 14.2918 160.071 16.5325C160.071 18.7731 161.701 19.915 163.956 19.915C166.212 19.915 167.842 18.7471 167.842 16.5325Z" fill="white"/>
        <path d="M174.43 22.865V10.1912H178.83V12.5443C179.861 10.7622 181.803 9.88843 184.016 9.88843V13.643C181.381 13.643 179.48 14.6725 178.83 16.7574V22.865H174.43Z" fill="white"/>
        <path d="M200.993 20.6244C200.993 26.187 196.635 27.8999 192.749 27.8999C190.494 27.8999 187.682 27.329 186.111 26.4379L187.276 23.436C188.324 24.1021 190.224 24.6471 192.234 24.6471C195.207 24.6471 196.567 23.4533 196.567 21.4462V20.4427C195.401 21.9999 193.484 22.7525 191.449 22.7525C187.496 22.7525 184.903 20.3043 184.903 16.2556C184.903 12.2069 187.496 9.73267 191.449 9.73267C193.569 9.73267 195.401 10.4853 196.567 12.0425V10.1912H200.993V20.6244ZM196.592 17.4408V15.0617C195.562 13.617 194.27 13.0287 192.707 13.0287C190.384 13.0287 189.134 14.2658 189.134 16.2556C189.134 18.2453 190.384 19.4824 192.707 19.4824C194.27 19.4824 195.57 18.8422 196.592 17.4494V17.4408Z" fill="white"/>
        <path d="M211.939 20.1917C213.907 20.1917 215.089 19.7072 216.314 18.747L218.552 21.152C216.787 22.7524 214.507 23.3926 211.694 23.3926C206.441 23.3926 203.383 20.78 203.383 16.5323C203.383 12.2846 206.398 9.66333 211.356 9.66333C215.824 9.66333 219 11.9559 219 16.4371C219 16.9389 218.975 17.2417 218.89 17.4926H207.589C207.944 19.4131 209.447 20.1917 211.947 20.1917H211.939ZM207.699 15.0703L214.937 15.027C214.464 13.539 213.282 12.8296 211.407 12.8296C209.532 12.8296 208.189 13.539 207.699 15.0703Z" fill="white"/>
        <path d="M17.0949 3.90179C13.1843 -0.103657 6.84129 -0.103657 2.93073 3.90179C-0.979838 7.90724 -0.979838 14.4042 2.93073 18.4096L17.0949 3.90179Z" fill="url(#paint0_linear_57_3193)"/>
        <path d="M0 24.898C3.91056 28.9034 10.2536 28.9034 14.1642 24.898C18.0747 20.8925 18.0747 14.3956 14.1642 10.3901L0 24.898Z" fill="url(#paint1_linear_57_3193)"/>
    </g>
    <defs>
        <linearGradient id="paint0_linear_57_3193" x1="8.54635" y1="0.897705" x2="8.54635" y2="18.4096" gradientUnits="userSpaceOnUse">
            <stop stop-color="#D0FFB6"/>
            <stop offset="0.515625" stop-color="#FB888C"/>
            <stop offset="1" stop-color="#8041BF"/>
        </linearGradient>
        <linearGradient id="paint1_linear_57_3193" x1="8.54855" y1="10.3901" x2="8.54855" y2="27.9021" gradientUnits="userSpaceOnUse">
            <stop stop-color="#D0FFB6"/>
            <stop offset="0.515625" stop-color="#FB888C"/>
            <stop offset="1" stop-color="#8041BF"/>
        </linearGradient>
        <clipPath id="clip0_57_3193">
            <rect width="219" height="27" fill="white" transform="translate(0 0.899902)"/>
        </clipPath>
    </defs>
</svg>
