<svg width="29" height="25" viewBox="0 0 29 25" fill="none" xmlns="http://www.w3.org/2000/svg">
    <path fill-rule="evenodd" clip-rule="evenodd" d="M19.1387 22.4998C15.5713 22.4998 11.3738 20.8978 7.84895 17.9178C2.22474 13.1588 0.756631 6.94675 4.5061 3.77475C5.61369 2.83875 6.96123 2.26875 8.51563 2.07875L9.41399 1.96875L12.7202 8.49075L9.41399 9.88875C10.18 11.1167 11.3407 12.3857 12.8644 13.6748C14.3171 14.9038 15.816 15.8787 17.3207 16.5708L18.874 13.9978L26.5372 14.9237L26.5821 15.7507C26.6944 17.8097 25.997 19.5368 24.5655 20.7467C23.166 21.9307 21.2641 22.4998 19.1387 22.4998ZM7.98843 4.23275C7.30875 4.42575 6.70118 4.74675 6.17753 5.19075C3.4588 7.48975 4.99075 12.6707 9.52037 16.5037C14.0524 20.3368 20.1754 21.6297 22.8941 19.3317C23.7996 18.5658 24.1258 17.5557 24.2062 16.6617L20.2262 16.1807L19.4626 17.4747C19.1742 17.9627 18.6766 18.3218 18.0607 18.4847C17.4449 18.6497 16.7616 18.5907 16.1895 18.3278C14.4874 17.5448 12.8053 16.4548 11.1918 15.0898C9.50146 13.6597 8.20239 12.2308 7.32885 10.8418C7.02506 10.3568 6.96714 9.80275 7.16336 9.28075C7.35958 8.76175 7.78394 8.34275 8.3596 8.09875L9.66695 7.54575L7.98843 4.23275Z" fill="#23253B"/>
</svg>
