<svg width="16" height="16" viewBox="0 0 16 16" fill="none" xmlns="http://www.w3.org/2000/svg">
    <g clip-path="url(#clip0_67_4455)">
        <path d="M13.7074 9.293C13.5199 9.10553 13.2656 9.00021 13.0004 9.00021C12.7352 9.00021 12.4809 9.10553 12.2934 9.293L9.00041 12.586V1C9.00041 0.734784 8.89505 0.48043 8.70751 0.292893C8.51998 0.105357 8.26562 0 8.00041 0C7.73519 0 7.48084 0.105357 7.2933 0.292893C7.10576 0.48043 7.00041 0.734784 7.00041 1V12.586L3.70741 9.293C3.5188 9.11084 3.2662 9.01005 3.00401 9.01233C2.74181 9.0146 2.491 9.11977 2.30559 9.30518C2.12018 9.49059 2.01501 9.7414 2.01273 10.0036C2.01045 10.2658 2.11125 10.5184 2.29341 10.707L7.29341 15.707C7.48094 15.8945 7.73524 15.9998 8.00041 15.9998C8.26557 15.9998 8.51988 15.8945 8.70741 15.707L13.7074 10.707C13.8949 10.5195 14.0002 10.2652 14.0002 10C14.0002 9.73484 13.8949 9.48053 13.7074 9.293Z" fill="#121325"/>
    </g>
    <defs>
        <clipPath id="clip0_67_4455">
            <rect width="16" height="16" fill="white"/>
        </clipPath>
    </defs>
</svg>
