<svg width="156" height="19" viewBox="0 0 156 19" fill="none" xmlns="http://www.w3.org/2000/svg">
    <g clip-path="url(#clip0_67_4384)">
        <path d="M32.9162 11.9322C32.9162 14.2516 30.7984 15.8284 26.7554 15.8284C23.8916 15.8284 21.485 15.0369 19.7402 13.6246L21.4429 11.5973C22.7665 12.7236 24.5955 13.3506 26.8216 13.3506C28.7288 13.3506 29.6854 12.9975 29.6854 12.2548C29.6854 11.5121 28.795 11.2869 26.5027 11.0981C23.1937 10.8059 20.1854 10.0693 20.1854 7.55504C20.1854 5.04078 22.7665 3.81714 26.2981 3.81714C28.6867 3.81714 30.8827 4.39548 32.4108 5.49128L30.7744 7.53678C29.535 6.65405 28.0369 6.29487 26.3042 6.28269C24.9986 6.28269 23.4223 6.48968 23.4223 7.29936C23.4223 8.05424 24.7098 8.15165 26.7012 8.31602C30.3472 8.62041 32.9222 9.34485 32.9222 11.9383L32.9162 11.9322Z" fill="#121325"/>
        <path d="M41.7663 14.9273C40.9722 15.4752 39.7268 15.7979 38.6619 15.7979C36.6584 15.7979 35.1422 14.6838 35.1422 12.5287V8.77865H33.584V6.53834H35.1422V4.4624H38.2768V6.53834H41.664V8.77865H38.2768V11.9991C38.2768 12.8027 38.8664 13.2714 39.7087 13.2714C40.2321 13.2714 40.7255 13.0949 41.2369 12.8514L41.7603 14.9273H41.7663Z" fill="#121325"/>
        <path d="M53.2993 10.4528V13.7707C53.2993 14.416 53.4136 14.9456 53.6784 15.4631H50.4957C50.3212 15.1891 50.1949 14.8482 50.1949 14.5438V14.5256C49.527 15.2318 48.2997 15.7797 46.7414 15.7797C44.8823 15.7797 42.5059 15.037 42.5059 12.754C42.5059 10.4711 44.8763 9.7284 46.7414 9.7284C48.2997 9.7284 49.527 10.2763 50.1949 11.0007V10.4224C50.1949 9.07092 49.2082 8.42561 47.2829 8.42561C46.23 8.42561 45.1952 8.57172 44.1183 9.11962L43.4023 7.10456C44.5936 6.52622 46.4105 6.1853 47.9387 6.1853C51.2959 6.1853 53.2993 7.70116 53.2993 10.4528ZM50.261 12.6566C49.6534 11.8043 48.5403 11.5791 47.6379 11.5791C46.7354 11.5791 45.5502 11.8043 45.5502 12.754C45.5502 13.7037 46.7414 13.929 47.6379 13.929C48.5343 13.929 49.6594 13.7037 50.261 12.8332V12.6566Z" fill="#121325"/>
        <path d="M60.3512 11.853L58.6004 13.4298V15.457H55.4658V3.54321H58.6004V10.4529L62.6434 6.53841H66.163L62.487 10.1424L66.3856 15.457H63.0104L60.3512 11.853Z" fill="#121325"/>
        <path d="M67.1436 4.13969C67.1436 3.23869 67.8896 2.64209 68.9545 2.64209C70.0194 2.64209 70.7534 3.23869 70.7534 4.13969C70.7534 5.04068 70.0074 5.63728 68.9545 5.63728C67.9016 5.63728 67.1436 5.04068 67.1436 4.13969ZM70.5489 15.4569H67.3962V6.53828H70.5489V15.4569Z" fill="#121325"/>
        <path d="M72.7451 15.4568V6.53823H75.8797V7.95668C76.6257 6.84262 77.9313 6.21558 79.5076 6.21558C82.0706 6.21558 83.4544 7.87146 83.4544 10.2092V15.4568H80.3198V10.4162C80.3198 9.25947 79.67 8.57764 78.4728 8.57764C77.4379 8.57764 76.5475 9.07684 75.8797 10.1726V15.4568H72.7451Z" fill="#121325"/>
        <path d="M96.5033 13.8801C96.5033 17.7946 93.3988 18.9999 90.6313 18.9999C89.0249 18.9999 87.0214 18.5981 85.9023 17.9711L86.7326 15.8586C87.4786 16.3274 88.8323 16.7109 90.2642 16.7109C92.382 16.7109 93.3507 15.8708 93.3507 14.4584V13.7523C92.5204 14.8481 91.1547 15.3777 89.7047 15.3777C86.889 15.3777 85.042 13.6549 85.042 10.8058C85.042 7.95668 86.889 6.21558 89.7047 6.21558C91.2148 6.21558 92.5204 6.74521 93.3507 7.84102V6.53823H96.5033V13.8801ZM93.3687 11.6398V9.96566C92.6347 8.949 91.7142 8.53503 90.6012 8.53503C88.9466 8.53503 88.0562 9.40558 88.0562 10.8058C88.0562 12.206 88.9466 13.0765 90.6012 13.0765C91.7142 13.0765 92.6407 12.626 93.3687 11.6459V11.6398Z" fill="#121325"/>
        <path d="M102.165 6.78188V8.92478H109.198V11.4877H102.165V15.4631H98.916V4.18848H110.582V6.78188H102.165Z" fill="#121325"/>
        <path d="M111.016 11.0007C111.016 8.00555 113.242 6.1853 116.791 6.1853C120.341 6.1853 122.549 8.00555 122.549 11.0007C122.549 13.9959 120.323 15.8284 116.791 15.8284C113.26 15.8284 111.016 13.9777 111.016 11.0007ZM119.559 11.0007C119.559 9.42401 118.398 8.62042 116.791 8.62042C115.185 8.62042 114.024 9.42401 114.024 11.0007C114.024 12.5775 115.185 13.3811 116.791 13.3811C118.398 13.3811 119.559 12.5592 119.559 11.0007Z" fill="#121325"/>
        <path d="M124.251 15.4569V6.53827H127.386V8.19415C128.12 6.94006 129.503 6.3252 131.08 6.3252V8.9673C129.202 8.9673 127.849 9.69174 127.386 11.1589V15.4569H124.251Z" fill="#121325"/>
        <path d="M143.173 13.8801C143.173 17.7946 140.069 18.9999 137.301 18.9999C135.695 18.9999 133.691 18.5981 132.572 17.9711L133.403 15.8586C134.149 16.3274 135.502 16.7109 136.934 16.7109C139.052 16.7109 140.021 15.8708 140.021 14.4584V13.7523C139.19 14.8481 137.825 15.3777 136.375 15.3777C133.559 15.3777 131.712 13.6549 131.712 10.8058C131.712 7.95668 133.559 6.21558 136.375 6.21558C137.885 6.21558 139.19 6.74521 140.021 7.84102V6.53823H143.173V13.8801ZM140.039 11.6398V9.96566C139.305 8.949 138.384 8.53503 137.271 8.53503C135.617 8.53503 134.726 9.40558 134.726 10.8058C134.726 12.206 135.617 13.0765 137.271 13.0765C138.384 13.0765 139.311 12.626 140.039 11.6459V11.6398Z" fill="#121325"/>
        <path d="M150.971 13.5758C152.372 13.5758 153.215 13.2349 154.087 12.5592L155.681 14.2516C154.424 15.3778 152.8 15.8283 150.796 15.8283C147.054 15.8283 144.876 13.9898 144.876 11.0007C144.876 8.01159 147.024 6.16699 150.555 6.16699C153.738 6.16699 156 7.78026 156 10.9337C156 11.2868 155.982 11.4999 155.922 11.6764H147.872C148.125 13.0279 149.196 13.5758 150.977 13.5758H150.971ZM147.95 9.97186L153.106 9.94142C152.77 8.89432 151.927 8.39512 150.592 8.39512C149.256 8.39512 148.299 8.89432 147.95 9.97186Z" fill="#121325"/>
        <path d="M12.1768 2.11228C9.3912 -0.706371 4.87286 -0.706371 2.08725 2.11228C-0.698355 4.93092 -0.698355 9.50286 2.08725 12.3215L12.1768 2.11228Z" fill="url(#paint0_linear_67_4384)"/>
        <path d="M0 16.8875C2.78561 19.7061 7.30395 19.7061 10.0896 16.8875C12.8752 14.0688 12.8752 9.49687 10.0896 6.67822L0 16.8875Z" fill="url(#paint1_linear_67_4384)"/>
    </g>
    <defs>
        <linearGradient id="paint0_linear_67_4384" x1="6.08743" y1="-0.00170898" x2="6.08743" y2="12.3215" gradientUnits="userSpaceOnUse">
            <stop stop-color="#D0FFB6"/>
            <stop offset="0.515625" stop-color="#FB888C"/>
            <stop offset="1" stop-color="#8041BF"/>
        </linearGradient>
        <linearGradient id="paint1_linear_67_4384" x1="6.08938" y1="6.67822" x2="6.08938" y2="19.0014" gradientUnits="userSpaceOnUse">
            <stop stop-color="#D0FFB6"/>
            <stop offset="0.515625" stop-color="#FB888C"/>
            <stop offset="1" stop-color="#8041BF"/>
        </linearGradient>
        <clipPath id="clip0_67_4384">
            <rect width="156" height="19" fill="white"/>
        </clipPath>
    </defs>
</svg>
